<svg width="63" height="63" viewBox="0 0 63 63" fill="none" xmlns="http://www.w3.org/2000/svg">
<g style="mix-blend-mode:hard-light">
<circle cx="31.7303" cy="31.2696" r="30.9048" stroke="#FAFAFA" stroke-width="0.729624"/>
</g>
<path d="M22.193 41.3765L20.4516 45.0246L24.6641 45.0246L22.9227 41.3765L22.193 41.3765ZM22.5579 19.3191C23.6324 19.3191 24.5035 18.448 24.5035 17.3735C24.5035 16.2989 23.6324 15.4278 22.5579 15.4278C21.4833 15.4278 20.6122 16.2989 20.6122 17.3735C20.6122 18.448 21.4833 19.3191 22.5579 19.3191ZM22.9227 41.7413L22.9227 17.3735L22.193 17.3735L22.193 41.7413L22.9227 41.7413Z" fill="#FAFAFA"/>
<path d="M31.1128 47.6203L29.3714 51.2684L33.5839 51.2684L31.8425 47.6203L31.1128 47.6203ZM31.4777 13.2027C32.5522 13.2027 33.4233 12.3316 33.4233 11.2571C33.4233 10.1825 32.5522 9.31142 31.4777 9.31142C30.4031 9.31142 29.532 10.1825 29.532 11.2571C29.532 12.3316 30.4031 13.2027 31.4777 13.2027ZM31.8425 47.9851L31.8425 11.2571L31.1128 11.2571L31.1128 47.9851L31.8425 47.9851Z" fill="#FAFAFA"/>
<path d="M40.0325 41.3765L38.2911 45.0246L42.5036 45.0246L40.7621 41.3765L40.0325 41.3765ZM40.3973 19.3191C41.4719 19.3191 42.343 18.448 42.343 17.3735C42.343 16.2989 41.4719 15.4278 40.3973 15.4278C39.3227 15.4278 38.4516 16.2989 38.4516 17.3735C38.4516 18.448 39.3227 19.3191 40.3973 19.3191ZM40.7621 41.7413L40.7621 17.3735L40.0325 17.3735L40.0325 41.7413L40.7621 41.7413Z" fill="#FAFAFA"/>
</svg>
